# xmcd
#
# Track frame offsets:
#	150
#	15692
#	27225
#	39852
#	52678
#	67462
#	77304
#	93308
#	109693
#	120590
#	134922
#	149468
#	162739
#	175048
#	182206
#
# Disc length: 2563 seconds
#
# Revision: 0
# Processed by: cddbd v1.5.2PL0 Copyright (c) Steve Scherf et al.
# Submitted via: EasyCDDAExtractor 16.0.6.1
#
DISCID=cb0a010f
DTITLE=Μεγάλα ρεμπέτικα 3
DYEAR=1900
DGENRE=Ρεμπέτικη
TTITLE0=Τσέρτος Μπάμπης - Πίνω και μεθώ
TTITLE1=Νικολαΐδης Απόστολος - Οι λαχανάδες (Κάτω στα Λεμονάδικα)
TTITLE2=Παπαϊωάννου Γιάννης - Ο μαστραπάς
TTITLE3=Εσκενάζυ Ρόζα - Ελενάκι
TTITLE4=Μπέλλου Σωτηρία - Σαν πεθάνω στο καράβι
TTITLE5=Βαμβακάρης Μάρκος - Η φλογερή ματιά σου
TTITLE6=Μαριώ - Μιά γυναίκα, δύο άντρες
TTITLE7=Ιακωβίδης Αγάθωνας - Το χαρέμι στο χαμάμ
TTITLE8=Γκολές Μπάμπης - Οι σφουγγαράδες
TTITLE9=Αλεξάνδρα - Το καράβι
TTITLE10=Βαμβακάρης Μάρκος - Μ' έκαψες τσαχπίνα
TTITLE11=Μπίνης Τάκης - Πιοτό, παρανομία και ξενύχτι
TTITLE12=Γκόγκος Δημήτρης ή Μπαγιαντέρας - Ξεκινά μιά ψαροπούλα
TTITLE13=Ευσταθίου Δημήτρης - Η φωνή τού αργιλέ
TTITLE14=Μητσάκης Γιώργος - Γκρεμίζουν την Αθήνα την παλιά
EXTD=
EXTT0=
EXTT1=
EXTT2=
EXTT3=
EXTT4=
EXTT5=
EXTT6=
EXTT7=
EXTT8=
EXTT9=
EXTT10=
EXTT11=
EXTT12=
EXTT13=
EXTT14=
PLAYORDER=
